REM DIRINDEX 1\2,1\4,1\3\5,1\3\6,1\3\7
REM DIRNAME cjc082,folder01,folder02,folder03,folder04,folder05,folder06
TITLE ""
FILE "CD3Track03.mp3" MP3
  TRACK 01 AUDIO
    TITLE "0:"
    INDEX 01 00:00:00
  TRACK 02 AUDIO
    TITLE "5:cjc082_2345"
    INDEX 01 00:00:25
  TRACK 03 AUDIO
    TITLE "0:"
    INDEX 01 00:01:24
  TRACK 04 AUDIO
    TITLE "6:cjc082_2346"
    INDEX 01 00:01:71
  TRACK 05 AUDIO
    TITLE "0:"
    INDEX 01 00:03:02
  TRACK 06 AUDIO
    TITLE "5:cjc082_2347"
    INDEX 01 00:03:43
  TRACK 07 AUDIO
    TITLE "0:"
    INDEX 01 00:04:56
  TRACK 08 AUDIO
    TITLE "6:cjc082_2348"
    INDEX 01 00:05:22
  TRACK 09 AUDIO
    TITLE "0:"
    INDEX 01 00:06:55
  TRACK 10 AUDIO
    TITLE "5:cjc082_2349"
    INDEX 01 00:07:25
  TRACK 11 AUDIO
    TITLE "0:"
    INDEX 01 00:08:38
  TRACK 12 AUDIO
    TITLE "6:cjc082_2350"
    INDEX 01 00:09:08
  TRACK 13 AUDIO
    TITLE "0:"
    INDEX 01 00:10:29
  TRACK 14 AUDIO
    TITLE "5:cjc082_2351"
    INDEX 01 00:10:72
  TRACK 15 AUDIO
    TITLE "0:"
    INDEX 01 00:12:09
  TRACK 16 AUDIO
    TITLE "6:cjc082_2352"
    INDEX 01 00:12:50
  TRACK 17 AUDIO
    TITLE "0:"
    INDEX 01 00:14:17
  TRACK 18 AUDIO
    TITLE "5:cjc082_2353"
    INDEX 01 00:14:58
  TRACK 19 AUDIO
    TITLE "0:"
    INDEX 01 00:16:49
  TRACK 20 AUDIO
    TITLE "6:cjc082_2354"
    INDEX 01 00:17:20
  TRACK 21 AUDIO
    TITLE "0:"
    INDEX 01 00:19:22
  TRACK 22 AUDIO
    TITLE "5:cjc082_2355"
    INDEX 01 00:19:67
  TRACK 23 AUDIO
    TITLE "0:"
    INDEX 01 00:21:04
  TRACK 24 AUDIO
    TITLE "6:cjc082_2356"
    INDEX 01 00:21:51
  TRACK 25 AUDIO
    TITLE "0:"
    INDEX 01 00:22:70
  TRACK 26 AUDIO
    TITLE "5:cjc082_2357"
    INDEX 01 00:23:40
  TRACK 27 AUDIO
    TITLE "0:"
    INDEX 01 00:24:43
  TRACK 28 AUDIO
    TITLE "6:cjc082_2358"
    INDEX 01 00:25:17
  TRACK 29 AUDIO
    TITLE "0:"
    INDEX 01 00:27:65
  TRACK 30 AUDIO
    TITLE "5:cjc082_2359"
    INDEX 01 00:28:31
  TRACK 31 AUDIO
    TITLE "0:"
    INDEX 01 00:29:34
  TRACK 32 AUDIO
    TITLE "6:cjc082_2360"
    INDEX 01 00:30:06
  TRACK 33 AUDIO
    TITLE "0:"
    INDEX 01 00:31:06
  TRACK 34 AUDIO
    TITLE "5:cjc082_2361"
    INDEX 01 00:31:53
  TRACK 35 AUDIO
    TITLE "0:"
    INDEX 01 00:33:24
  TRACK 36 AUDIO
    TITLE "6:cjc082_2362"
    INDEX 01 00:33:73
  TRACK 37 AUDIO
    TITLE "0:"
    INDEX 01 00:35:64
  TRACK 38 AUDIO
    TITLE "5:cjc082_2363"
    INDEX 01 00:36:31
  TRACK 39 AUDIO
    TITLE "0:"
    INDEX 01 00:37:48
  TRACK 40 AUDIO
    TITLE "6:cjc082_2364"
    INDEX 01 00:38:24
  TRACK 41 AUDIO
    TITLE "0:"
    INDEX 01 00:41:59
  TRACK 42 AUDIO
    TITLE "5:cjc082_2365"
    INDEX 01 00:42:29
  TRACK 43 AUDIO
    TITLE "0:"
    INDEX 01 00:43:48
  TRACK 44 AUDIO
    TITLE "6:cjc082_2366"
    INDEX 01 00:44:22
  TRACK 45 AUDIO
    TITLE "0:"
    INDEX 01 00:45:22
  TRACK 46 AUDIO
    TITLE "5:cjc082_2367"
    INDEX 01 00:45:71
  TRACK 47 AUDIO
    TITLE "0:"
    INDEX 01 00:47:09
  TRACK 48 AUDIO
    TITLE "6:cjc082_2368"
    INDEX 01 00:47:56
  TRACK 49 AUDIO
    TITLE "0:"
    INDEX 01 00:50:11
  TRACK 50 AUDIO
    TITLE "5:cjc082_2369"
    INDEX 01 00:50:56
  TRACK 51 AUDIO
    TITLE "0:"
    INDEX 01 00:52:06
  TRACK 52 AUDIO
    TITLE "6:cjc082_2370"
    INDEX 01 00:52:49
  TRACK 53 AUDIO
    TITLE "0:"
    INDEX 01 00:55:34
  TRACK 54 AUDIO
    TITLE "5:cjc082_2371"
    INDEX 01 00:56:04
  TRACK 55 AUDIO
    TITLE "0:"
    INDEX 01 00:57:64
  TRACK 56 AUDIO
    TITLE "6:cjc082_2372"
    INDEX 01 00:58:36
  TRACK 57 AUDIO
    TITLE "0:"
    INDEX 01 01:00:02
  TRACK 58 AUDIO
    TITLE "7:cjc082_2373"
    INDEX 01 01:01:40
  TRACK 59 AUDIO
    TITLE "0:"
    INDEX 01 01:13:04
